#!OML:ASF F:\VICON\USERDATA\INSTALL\rory3\rory3.ASF
:FULLY-SPECIFIED
:DEGREES
609
root 0.0599323 17.9166 -0.747649 1.62694 -7.80651 3.60061
lowerback -0.256954 -1.75552 -5.44285
upperback -0.731288 -2.34044 2.78087
thorax -0.275813 -1.14632 5.93482
lowerneck -25.668 1.90597 -9.13029
upperneck 0.0438286 4.69434 5.92453
head 3.57727 2.64455 3.78354
rclavicle -1.12438e-014 -1.03368e-014
rhumerus -34.2116 -5.54736 -75.7398
rradius 34.1578
rwrist 19.1814
rhand -21.6963 7.37234
rfingers 7.12502
rthumb 4.70203 -22.5555
lclavicle -1.12438e-014 -1.03368e-014
lhumerus 59.2383 10.6579 54.6804
lradius 95.4007
lwrist -5.9953
lhand -31.8859 6.69868
lfingers 7.12502
lthumb -5.13859 36.6164
rfemur -8.18459 6.65869 12.1073
rtibia 27.8423
rfoot -18.3994 -2.73715
rtoes 3.35584
lfemur 1.09603 -2.18601 -24.5014
ltibia 11.8038
lfoot -10.5584 3.66913
ltoes -11.1472
610
root 0.0608219 17.9157 -0.746854 1.61244 -7.83039 3.63167
lowerback -0.213546 -1.7457 -5.49054
upperback -0.744069 -2.32958 2.78994
thorax -0.312753 -1.13909 5.9735
lowerneck -25.6669 1.88152 -9.22309
upperneck 0.0221609 4.68557 5.98768
head 3.56769 2.64441 3.81725
rclavicle 4.09621e-014 -1.66979e-014
rhumerus -34.1887 -5.50469 -75.6889
rradius 34.0949
rwrist 19.1152
rhand -21.7549 7.31071
rfingers 7.12502
rthumb 4.64547 -22.6184
lclavicle 4.09621e-014 -1.66979e-014
lhumerus 59.2663 10.6912 54.6867
lradius 95.2756
lwrist -6.13164
lhand -31.9929 6.44506
lfingers 7.12502
lthumb -5.24188 36.3602
rfemur -8.17341 6.68895 12.0702
rtibia 27.8339
rfoot -18.3928 -2.72775
rtoes 3.5592
lfemur 1.11291 -2.18492 -24.5352
ltibia 11.7596
lfoot -10.5035 3.64729
ltoes -10.9832
611
root 0.0614307 17.9164 -0.746527 1.61829 -7.84065 3.6602
lowerback -0.188801 -1.71536 -5.53131
upperback -0.726024 -2.29018 2.76465
thorax -0.313162 -1.11962 5.97111
lowerneck -25.7116 1.86739 -9.14775
upperneck -0.0669898 4.6552 5.90995
head 3.55106 2.62636 3.77727
rclavicle -4.32108e-014 2.38542e-014
rhumerus -34.099 -5.638 -75.6622
rradius 34.0037
rwrist 19.102
rhand -21.5595 6.78086
rfingers 7.12502
rthumb 4.83414 -23.144
lclavicle -4.32108e-014 2.38542e-014
lhumerus 59.3861 10.6609 54.724
lradius 95.2478
lwrist -6.19154
lhand -32.0396 6.23673
lfingers 7.12502
lthumb -5.28697 36.1508
rfemur -8.18818 6.64256 12.0329
rtibia 27.8324
rfoot -18.366 -2.73278
rtoes 3.54279
lfemur 1.13587 -2.20511 -24.5785
ltibia 11.7186
lfoot -10.4874 3.66438
ltoes -11.1388
612
root 0.0618209 17.917 -0.745979 1.63016 -7.83744 3.66142
lowerback -0.188102 -1.71523 -5.5341
upperback -0.776927 -2.29049 2.7584
thorax -0.366282 -1.11657 5.96723
lowerneck -25.5206 1.8758 -9.14917
upperneck -0.154512 4.65198 5.91437
head 3.4979 2.62452 3.77274
rclavicle -2.76435e-014 -7.15625e-015
rhumerus -34.2193 -5.60291 -75.6393
rradius 34.037
rwrist 19.0246
rhand -21.5241 6.55317
rfingers 7.12502
rthumb 4.86832 -23.3709
lclavicle -2.76435e-014 -7.15625e-015
lhumerus 59.3337 10.5901 54.7123
lradius 95.2865
lwrist -6.11928
lhand -32.0097 6.09787
lfingers 7.12502
lthumb -5.25813 36.0126
rfemur -8.1972 6.55658 12.0202
rtibia 27.8176
rfoot -18.3497 -2.66436
rtoes 3.55089
lfemur 1.15871 -2.25494 -24.5979
ltibia 11.6829
lfoot -10.4554 3.74712
ltoes -11.3799
613
root 0.0617705 17.9166 -0.745846 1.60254 -7.86726 3.66072
lowerback -0.183005 -1.71166 -5.55543
upperback -0.77458 -2.28597 2.78384
thorax -0.365548 -1.1143 6.00634
lowerneck -25.4553 1.84418 -9.24713
upperneck -0.1903 4.63158 5.95803
head 3.47632 2.61688 3.79824
rclavicle -9.18137e-015 -2.38542e-015
rhumerus -34.2988 -5.50666 -75.5845
rradius 34.1077
rwrist 18.9883
rhand -21.745 6.64665
rfingers 7.12502
rthumb 4.65503 -23.2822
lclavicle -9.18137e-015 -2.38542e-015
lhumerus 59.3073 10.6167 54.7098
lradius 95.3003
lwrist -6.10242
lhand -32.033 6.09441
lfingers 7.12502
lthumb -5.28056 36.0086
rfemur -8.16582 6.5471 12.0149
rtibia 27.7928
rfoot -18.31 -2.60274
rtoes 3.55584
lfemur 1.18661 -2.22588 -24.5992
ltibia 11.6902
lfoot -10.4511 3.76883
ltoes -11.4185
614
root 0.0624432 17.9192 -0.744844 1.6111 -7.89783 3.6297
lowerback -0.241854 -1.67934 -5.53083
upperback -0.733924 -2.23951 2.78275
thorax -0.298159 -1.09449 5.98879
lowerneck -25.5312 1.79531 -9.26327
upperneck -0.174533 4.57751 5.97822
head 3.4951 2.59219 3.80468
rclavicle 8.27441e-015 -3.97569e-015
rhumerus -34.3117 -5.58587 -75.562
rradius 34.1445
rwrist 19.0152
rhand -21.9251 6.73794
rfingers 7.12502
rthumb 4.48106 -23.1947
lclavicle 8.27441e-015 -3.97569e-015
lhumerus 59.4284 10.5989 54.7475
lradius 95.2995
lwrist -6.1232
lhand -32.003 6.17301
lfingers 7.12502
lthumb -5.25163 36.0879
rfemur -8.16065 6.55843 12.0436
rtibia 27.7703
rfoot -18.2553 -2.60445
rtoes 3.32269
lfemur 1.17314 -2.24371 -24.5701
ltibia 11.7161
lfoot -10.4703 3.81756
ltoes -11.4418
615
root 0.0634343 17.9199 -0.742876 1.65458 -7.92182 3.59287
lowerback -0.322016 -1.63623 -5.48056
upperback -0.669933 -2.17745 2.75135
thorax -0.198988 -1.06859 5.92386
lowerneck -25.8082 1.74312 -9.18377
upperneck -0.0998567 4.5079 5.97805
head 3.56337 2.56005 3.79381
rclavicle -9.74045e-015 2.62396e-014
rhumerus -34.2133 -5.73082 -75.5874
rradius 34.1293
rwrist 18.9761
rhand -21.9484 6.59841
rfingers 7.12502
rthumb 4.45859 -23.3347
lclavicle -9.74045e-015 2.62396e-014
lhumerus 59.6598 10.5583 54.7783
lradius 95.2828
lwrist -6.15514
lhand -31.9121 6.203
lfingers 7.12502
lthumb -5.16387 36.1201
rfemur -8.19084 6.54685 12.0703
rtibia 27.7534
rfoot -18.2404 -2.56578
rtoes 3.3334
lfemur 1.13628 -2.26581 -24.5416
ltibia 11.7365
lfoot -10.4914 3.84913
ltoes -11.428
616
root 0.062816 17.9187 -0.742592 1.65708 -7.92495 3.58408
lowerback -0.302362 -1.61573 -5.49675
upperback -0.657168 -2.15089 2.72837
thorax -0.200936 -1.05547 5.90966
lowerneck -25.8408 1.72374 -9.12343
upperneck -0.159819 4.46796 5.98089
head 3.5534 2.54212 3.78159
rclavicle 1.91082e-014 1.35174e-014
rhumerus -34.1472 -5.91945 -75.5845
rradius 34.0125
rwrist 19.0885
rhand -21.9591 6.43902
rfingers 7.12502
rthumb 4.44827 -23.4943
lclavicle 1.91082e-014 1.35174e-014
lhumerus 59.759 10.4952 54.7633
lradius 95.2425
lwrist -6.21861
lhand -31.9683 6.08718
lfingers 7.12502
lthumb -5.21808 36.0029
rfemur -8.19488 6.50589 12.0772
rtibia 27.7484
rfoot -18.2276 -2.54165
rtoes 3.28958
lfemur 1.12935 -2.2517 -24.5292
ltibia 11.7532
lfoot -10.5034 3.84028
ltoes -11.3599
617
root 0.0628903 17.9177 -0.743727 1.64062 -7.9161 3.59411
lowerback -0.24035 -1.6278 -5.5449
upperback -0.683602 -2.17033 2.73166
thorax -0.258451 -1.06241 5.94291
lowerneck -25.764 1.73764 -9.08621
upperneck -0.177481 4.47097 5.95201
head 3.53856 2.5412 3.76467
rclavicle 1.83379e-014 -5.56597e-015
rhumerus -34.1295 -6.00225 -75.5478
rradius 33.8898
rwrist 19.2082
rhand -21.9405 6.49153
rfingers 7.12502
rthumb 4.46622 -23.4414
lclavicle 1.83379e-014 -5.56597e-015
lhumerus 59.7225 10.4881 54.7453
lradius 95.2544
lwrist -6.23835
lhand -32.077 6.02349
lfingers 7.12502
lthumb -5.32307 35.9366
rfemur -8.18867 6.47452 12.0675
rtibia 27.7558
rfoot -18.2146 -2.53388
rtoes 3.28359
lfemur 1.131 -2.2352 -24.5364
ltibia 11.7815
lfoot -10.5276 3.85039
ltoes -11.3759
618
root 0.063519 17.917 -0.743578 1.63236 -7.91997 3.62129
lowerback -0.218782 -1.63663 -5.58084
upperback -0.684251 -2.18325 2.71607
thorax -0.268683 -1.0684 5.94762
lowerneck -25.7512 1.75125 -9.0323
upperneck -0.203617 4.47382 5.92398
head 3.53008 2.5411 3.74672
rclavicle -1.86609e-014 7.15625e-015
rhumerus -34.1356 -6.00188 -75.5537
rradius 33.8761
rwrist 19.229
rhand -21.929 6.61572
rfingers 7.12502
rthumb 4.4773 -23.317
lclavicle -1.86609e-014 7.15625e-015
lhumerus 59.7403 10.5093 54.7226
lradius 95.2817
lwrist -6.30788
lhand -32.0899 6.12517
lfingers 7.12502
lthumb -5.33549 36.038
rfemur -8.19053 6.44424 12.0355
rtibia 27.7719
rfoot -18.1996 -2.542
rtoes 2.91122
lfemur 1.13547 -2.22182 -24.5683
ltibia 11.7885
lfoot -10.5213 3.84298
ltoes -11.3457
619
root 0.0645337 17.9172 -0.74275 1.62184 -7.92901 3.64835
lowerback -0.212757 -1.6509 -5.6074
upperback -0.723569 -2.20305 2.71067
thorax -0.309107 -1.07578 5.9579
lowerneck -25.5032 1.77207 -9.06902
upperneck -0.359755 4.49165 5.9566
head 3.44484 2.55163 3.75637
rclavicle -2.60656e-014 -5.56597e-015
rhumerus -34.2632 -5.81984 -75.577
rradius 33.9333
rwrist 19.1293
rhand -22.0429 6.55633
rfingers 7.12502
rthumb 4.36732 -23.3786
lclavicle -2.60656e-014 -5.56597e-015
lhumerus 59.6925 10.5264 54.692
lradius 95.2553
lwrist -6.23033
lhand -32.0777 6.08513
lfingers 7.12502
lthumb -5.32372 35.9983
rfemur -8.18528 6.42014 11.9969
rtibia 27.7775
rfoot -18.2016 -2.48546
rtoes 2.78223
lfemur 1.12635 -2.21321 -24.6035
ltibia 11.8161
lfoot -10.487 3.80471
ltoes -11.2781
620
root 0.0651241 17.9173 -0.742785 1.61315 -7.95432 3.64955
lowerback -0.191346 -1.65449 -5.62805
upperback -0.773071 -2.20942 2.7238
thorax -0.370135 -1.07545 5.98515
lowerneck -25.3139 1.7811 -9.09652
upperneck -0.40207 4.49708 5.95282
head 3.40499 2.55261 3.75493
rclavicle 4.07881e-014 4.77083e-015
rhumerus -34.3802 -5.76793 -75.5417
rradius 33.9574
rwrist 19.1746
rhand -22.0355 6.41179
rfingers 7.12502
rthumb 4.37445 -23.523
lclavicle 4.07881e-014 4.77083e-015
lhumerus 59.6007 10.4892 54.6838
lradius 95.2924
lwrist -6.03511
lhand -31.9891 6.10667
lfingers 7.12502
lthumb -5.23819 36.0219
rfemur -8.18634 6.44497 11.9885
rtibia 27.7792
rfoot -18.2076 -2.44666
rtoes 3.16699
lfemur 1.11559 -2.23592 -24.6088
ltibia 11.844
lfoot -10.4849 3.83304
ltoes -11.0634
621
root 0.0659561 17.917 -0.742521 1.61428 -7.96897 3.62513
lowerback -0.197396 -1.65819 -5.61866
upperback -0.770587 -2.21399 2.74786
thorax -0.362907 -1.07809 6.0048
lowerneck -25.3058 1.76995 -9.17077
upperneck -0.401496 4.49988 6.00536
head 3.40131 2.55711 3.78353
rclavicle 3.6713e-014 -1.03368e-014
rhumerus -34.3881 -5.78062 -75.493
rradius 33.9525
rwrist 19.2146
rhand -22.0375 6.42728
rfingers 7.12502
rthumb 4.37253 -23.5076
lclavicle 3.6713e-014 -1.03368e-014
lhumerus 59.5918 10.4944 54.7162
lradius 95.284
lwrist -6.03118
lhand -31.8188 6.23502
lfingers 7.12502
lthumb -5.07378 36.1543
rfemur -8.18171 6.43711 12.0151
rtibia 27.7666
rfoot -18.1958 -2.44363
rtoes 3.09413
lfemur 1.10536 -2.20287 -24.5876
ltibia 11.8867
lfoot -10.5181 3.87246
ltoes -11.339
622
root 0.0672148 17.917 -0.741473 1.60244 -7.98068 3.62878
lowerback -0.233438 -1.6658 -5.60613
upperback -0.738994 -2.22205 2.73757
thorax -0.309685 -1.08489 5.98488
lowerneck -25.3335 1.7658 -9.20481
upperneck -0.409141 4.50381 6.04783
head 3.40093 2.56212 3.80339
rclavicle -2.90723e-015 3.65764e-014
rhumerus -34.3532 -5.74109 -75.5119
rradius 33.9495
rwrist 19.1599
rhand -22.011 6.48352
rfingers 7.12502
rthumb 4.39816 -23.4508
lclavicle -2.90723e-015 3.65764e-014
lhumerus 59.6033 10.5127 54.7324
lradius 95.3336
lwrist -6.03942
lhand -31.7657 6.3501
lfingers 7.12502
lthumb -5.02246 36.2706
rfemur -8.16339 6.43186 12.0063
rtibia 27.7562
rfoot -18.1802 -2.43519
rtoes 2.85065
lfemur 1.11317 -2.19227 -24.6018
ltibia 11.9141
lfoot -10.5543 3.90146
ltoes -11.3635
623
root 0.0668357 17.9186 -0.741405 1.61138 -7.98095 3.63264
lowerback -0.259326 -1.68198 -5.62188
upperback -0.725782 -2.2423 2.73104
thorax -0.278229 -1.09644 5.98564
lowerneck -25.4094 1.76594 -9.20786
upperneck -0.335107 4.50814 6.07416
head 3.43366 2.56567 3.81567
rclavicle 3.7707e-014 -3.97569e-015
rhumerus -34.3226 -5.68441 -75.5499
rradius 33.9463
rwrist 19.1521
rhand -21.9514 6.35054
rfingers 7.12502
rthumb 4.45572 -23.5826
lclavicle 3.7707e-014 -3.97569e-015
lhumerus 59.6103 10.5511 54.7238
lradius 95.3694
lwrist -6.0428
lhand -31.7211 6.36085
lfingers 7.12502
lthumb -4.97942 36.2823
rfemur -8.16946 6.44894 12.0055
rtibia 27.7469
rfoot -18.1698 -2.44797
rtoes 3.0205
lfemur 1.08833 -2.19888 -24.603
ltibia 11.9334
lfoot -10.564 3.88602
ltoes -11.2812
